<?xml version="1.0" standalone="no"?>
<!DOCTYPE svg PUBLIC "-//W3C//DTD SVG 20010904//EN"
 "http://www.w3.org/TR/2001/REC-SVG-20010904/DTD/svg10.dtd">
<svg version="1.0" xmlns="http://www.w3.org/2000/svg"
 width="1920.000000pt" height="1920.000000pt" viewBox="0 0 1920.000000 1920.000000"
 preserveAspectRatio="xMidYMid meet">

<g transform="translate(0.000000,1920.000000) scale(0.100000,-0.100000)"
fill="#000000" stroke="none">
<path d="M9414 15059 c-279 -26 -513 -214 -612 -492 -23 -65 -26 -87 -26 -222
0 -137 2 -157 27 -230 84 -251 284 -430 546 -491 36 -9 67 -17 68 -18 2 -1
-13 -157 -32 -347 -19 -189 -35 -348 -35 -353 0 -5 -33 -6 -77 -2 -339 29
-982 79 -1233 95 -577 38 -756 45 -1150 45 -424 0 -517 -7 -776 -59 -550 -111
-928 -400 -1134 -865 -139 -316 -200 -663 -243 -1374 l-2 -38 -100 -40 c-184
-73 -409 -170 -540 -233 -201 -97 -274 -184 -298 -352 -6 -47 -11 -271 -11
-568 -1 -396 2 -527 17 -685 31 -343 94 -720 147 -893 36 -115 133 -218 251
-265 30 -12 137 -40 239 -62 102 -22 194 -42 205 -45 20 -4 21 3 33 183 24
361 90 942 104 920 4 -7 8 -28 8 -46 0 -95 98 -771 150 -1037 10 -55 38 -203
60 -330 125 -698 199 -993 315 -1257 144 -326 355 -549 625 -663 182 -76 422
-112 1055 -157 281 -20 1423 -17 1790 5 1100 66 2064 167 3019 318 241 38 265
40 330 30 149 -25 279 -120 344 -253 90 -185 120 -457 80 -744 -10 -74 -9 -86
8 -120 38 -78 124 -105 205 -64 93 48 355 223 499 334 310 240 628 567 839
864 348 492 515 941 600 1622 34 269 61 623 61 801 0 181 12 711 16 707 6 -7
100 -487 128 -658 l32 -195 30 3 c48 5 149 57 196 101 81 74 111 154 162 431
29 161 62 436 76 648 12 191 13 668 0 861 -8 131 -12 150 -40 207 -18 36 -49
79 -73 100 -42 37 -219 127 -394 200 l-93 39 0 43 c0 150 -54 511 -106 711
-85 325 -200 539 -393 731 -231 230 -527 370 -1001 475 -334 74 -1710 275
-2608 381 l-232 27 -265 486 -265 486 38 35 c190 174 277 433 228 680 -23 116
-97 266 -171 348 -162 178 -380 263 -621 241z m361 -174 c102 -49 159 -143
160 -260 1 -256 -309 -382 -491 -200 -65 65 -89 129 -82 224 6 78 31 131 85
182 95 91 214 110 328 54z m-2015 -3125 c74 -6 248 -21 385 -34 138 -14 349
-30 470 -36 395 -20 659 -40 712 -55 28 -9 71 -30 95 -48 44 -33 56 -51 210
-294 48 -76 109 -165 135 -198 l49 -60 83 -17 c135 -27 615 -71 1214 -112 166
-12 224 -13 243 -4 16 8 62 70 127 171 114 178 150 219 222 252 89 42 111 41
540 -24 618 -93 1042 -160 1136 -181 380 -82 566 -289 609 -679 12 -112 -2
-1579 -20 -2001 -16 -386 -49 -820 -76 -1010 -51 -360 -171 -529 -440 -619
-121 -41 -181 -50 -784 -131 -1332 -177 -2182 -269 -2990 -325 -1051 -72
-2213 -83 -2510 -24 -169 34 -249 124 -330 375 -266 821 -400 1774 -400 2839
0 385 38 1166 70 1435 34 286 117 510 222 605 95 86 276 152 473 174 113 12
396 13 555 1z"/>
<path d="M8460 10489 c-155 -40 -280 -116 -411 -249 -422 -428 -558 -1238
-319 -1898 l12 -32 28 39 c76 105 220 149 347 107 65 -22 136 -84 171 -150 23
-44 27 -63 27 -136 0 -94 -16 -136 -77 -206 -40 -45 -139 -94 -190 -94 -52 0
-43 -16 52 -98 101 -87 200 -145 314 -185 85 -29 100 -32 226 -32 114 0 147 4
210 23 176 56 317 152 444 302 305 361 440 909 360 1460 -14 99 -19 121 -45
221 l-10 41 -56 -56 c-105 -106 -258 -158 -398 -136 -232 36 -395 226 -395
461 0 208 134 386 333 444 31 9 57 18 57 20 0 7 -130 86 -181 109 -146 67
-346 85 -499 45z"/>
<path d="M12140 9856 c-167 -49 -314 -197 -399 -401 -89 -213 -104 -490 -39
-728 l21 -78 31 30 c62 60 139 75 211 42 156 -73 164 -275 14 -351 -21 -11
-46 -20 -56 -20 -28 -1 62 -76 132 -110 377 -182 763 208 769 775 1 121 -18
295 -33 295 -3 0 -18 -16 -34 -35 -15 -19 -49 -47 -75 -62 -42 -25 -57 -28
-137 -28 -80 0 -95 3 -136 27 -93 54 -142 141 -142 248 1 135 85 237 223 270
l65 16 -56 38 c-31 20 -80 46 -110 57 -67 26 -188 33 -249 15z"/>
</g>
</svg>
