<?xml version="1.0" standalone="no"?>
<!DOCTYPE svg PUBLIC "-//W3C//DTD SVG 20010904//EN"
 "http://www.w3.org/TR/2001/REC-SVG-20010904/DTD/svg10.dtd">
<svg version="1.0" xmlns="http://www.w3.org/2000/svg"
 width="1000.000000pt" height="1000.000000pt" viewBox="0 0 1000.000000 1000.000000"
 preserveAspectRatio="xMidYMid meet">

<g transform="translate(0.000000,1000.000000) scale(0.100000,-0.100000)"
fill="#000000" stroke="none">
<path d="M4620 7593 c-349 -33 -666 -124 -965 -277 -251 -128 -454 -276 -655
-476 -421 -420 -686 -970 -750 -1560 -15 -135 -15 -425 0 -560 64 -591 327
-1137 750 -1560 414 -415 937 -671 1525 -744 141 -18 497 -18 634 1 232 30
436 84 650 169 897 360 1522 1196 1619 2164 9 95 9 402 0 500 -22 232 -97 535
-178 725 l-21 48 -230 -229 c-177 -176 -229 -234 -226 -249 87 -400 95 -630
32 -942 -125 -620 -538 -1148 -1110 -1419 -436 -206 -939 -249 -1401 -119
-757 213 -1327 859 -1443 1636 -25 168 -25 430 0 598 115 772 677 1413 1430
1630 228 66 538 95 759 70 441 -50 848 -235 1163 -529 41 -38 79 -70 84 -70 4
0 100 92 213 205 l204 205 -44 46 c-76 78 -239 211 -360 293 -370 251 -769
396 -1219 441 -95 9 -378 11 -461 3z"/>
<path d="M5973 5898 l-1313 -1313 -400 400 -400 400 -237 -238 -238 -237 638
-638 637 -637 1552 1552 1553 1553 -235 235 c-129 129 -237 235 -240 235 -3 0
-596 -591 -1317 -1312z"/>
</g>
</svg>
