<?xml version="1.0" standalone="no"?>
<!DOCTYPE svg PUBLIC "-//W3C//DTD SVG 20010904//EN"
 "http://www.w3.org/TR/2001/REC-SVG-20010904/DTD/svg10.dtd">
<svg version="1.0" xmlns="http://www.w3.org/2000/svg"
 width="319.000000pt" height="319.000000pt" viewBox="0 0 319.000000 319.000000"
 preserveAspectRatio="xMidYMid meet">

<g transform="translate(0.000000,319.000000) scale(0.100000,-0.100000)"
fill="#ffffff" stroke="none">
<path d="M1345 2267 l-229 -132 137 -3 137 -3 95 56 95 56 95 -56 95 -56 137
3 137 3 -231 133 c-126 72 -232 132 -234 132 -2 0 -107 -60 -234 -133z"/>
<path d="M850 2033 c0 -5 39 -76 88 -158 48 -83 211 -365 362 -628 151 -262
277 -477 280 -477 3 0 22 30 43 67 33 59 37 70 27 93 -11 24 -94 169 -242 422
-37 64 -68 119 -68 122 0 3 57 6 126 6 69 0 124 3 122 8 -1 4 -20 37 -41 75
l-39 67 -131 0 -132 1 -72 127 -71 127 124 3 c68 1 124 5 124 8 0 3 -18 37
-40 75 l-41 69 -209 0 c-116 0 -210 -3 -210 -7z"/>
<path d="M1403 1965 l42 -74 307 -3 307 -3 -107 -187 c-59 -103 -109 -187
-112 -188 -3 0 -43 67 -90 150 l-85 149 -82 1 c-46 0 -83 -2 -83 -5 0 -3 41
-76 91 -163 50 -86 125 -217 167 -289 42 -73 79 -133 82 -133 3 0 34 51 69
113 79 137 167 290 294 507 52 91 99 173 102 183 7 16 -20 17 -468 17 l-475 0
41 -75z"/>
<path d="M900 1489 c0 -201 3 -269 13 -276 23 -19 439 -255 442 -251 2 1 -27
54 -63 117 l-67 115 -92 54 -93 54 0 104 c0 115 3 106 -84 254 l-56 95 0 -266z"/>
<path d="M2188 1631 l-68 -117 0 -106 0 -106 -92 -54 -93 -54 -67 -115 c-36
-63 -65 -116 -63 -117 2 -2 68 33 147 79 79 45 178 103 221 127 44 25 81 50
83 56 2 6 3 127 2 268 l-3 257 -67 -118z"/>
</g>
</svg>
