<?xml version="1.0" standalone="no"?>
<!DOCTYPE svg PUBLIC "-//W3C//DTD SVG 20010904//EN"
 "http://www.w3.org/TR/2001/REC-SVG-20010904/DTD/svg10.dtd">
<svg version="1.0" xmlns="http://www.w3.org/2000/svg"
 width="387.000000pt" height="387.000000pt" viewBox="0 0 387.000000 387.000000"
 preserveAspectRatio="xMidYMid meet">

<g transform="translate(0.000000,387.000000) scale(0.100000,-0.100000)"
fill="#000000" stroke="none">
<path d="M1765 3313 c-203 -18 -480 -124 -673 -255 -103 -70 -284 -253 -354
-358 -154 -233 -226 -450 -235 -720 -9 -244 33 -442 137 -655 188 -382 547
-654 994 -751 93 -21 340 -29 442 -16 79 11 250 59 241 68 -3 3 -56 -5 -118
-18 -157 -31 -427 -32 -569 -1 -482 105 -878 445 -1024 880 -58 171 -71 257
-70 453 0 153 3 189 27 287 60 257 179 467 372 658 195 194 423 313 719 377
134 29 417 31 546 5 284 -58 535 -192 741 -397 120 -119 177 -195 255 -342 30
-57 52 -92 48 -78 -13 48 -73 161 -116 219 -24 32 -62 85 -85 117 -197 275
-557 477 -933 523 -79 10 -255 12 -345 4z"/>
<path d="M1695 3234 c-667 -117 -1149 -699 -1122 -1354 14 -341 143 -629 391
-875 260 -258 569 -386 936 -388 422 -1 805 176 1039 481 189 248 247 378 286
647 23 161 16 310 -24 466 -65 259 -142 399 -310 569 -63 63 -108 106 -100 96
12 -17 9 -16 -18 4 -18 13 -30 27 -27 31 2 4 -1 11 -7 15 -8 4 -9 3 -5 -4 12
-19 3 -15 -70 34 -220 147 -411 196 -764 196 -151 0 -185 -3 -245 -22 -38 -12
-101 -30 -140 -41 -286 -82 -535 -291 -694 -582 -186 -338 -187 -777 -4 -1128
147 -282 409 -501 718 -602 148 -48 237 -61 410 -61 129 0 178 5 252 22 510
121 882 504 968 999 27 156 14 383 -31 532 -7 25 -12 47 -9 49 10 10 48 -148
67 -278 19 -132 20 -155 9 -258 -30 -278 -143 -536 -309 -706 -208 -212 -400
-324 -672 -392 -107 -26 -129 -28 -315 -29 -185 0 -208 2 -306 27 -189 48
-306 102 -459 212 -561 403 -706 1167 -327 1731 206 307 497 500 867 575 92
19 128 21 295 17 161 -4 205 -9 290 -30 138 -36 256 -85 385 -158 l35 -21 -30
26 c-69 60 -321 160 -492 195 -121 25 -341 27 -468 5z m647 -281 c33 -6 35
-14 10 -36 -13 -12 -17 -26 -14 -49 l5 -32 -28 18 c-22 15 -32 16 -52 7 -34
-15 -36 -14 -29 15 5 20 1 33 -15 50 l-22 24 31 6 c18 4 39 18 49 33 l17 26
10 -28 c7 -19 19 -30 38 -34z m-637 -25 c17 -37 26 -44 59 -51 22 -4 42 -9 44
-12 2 -2 -11 -17 -29 -33 -30 -27 -33 -34 -30 -76 1 -25 0 -46 -3 -46 -3 0
-21 10 -41 22 l-37 21 -45 -22 -45 -22 6 26 c3 14 8 35 11 48 4 15 -4 33 -24
57 -17 19 -29 36 -27 37 2 2 23 7 47 11 37 6 47 13 64 45 11 20 22 37 25 37 3
0 14 -19 25 -42z m455 -168 c24 -13 40 -61 40 -120 0 -44 -5 -77 -45 -300 -34
-194 -8 -331 56 -292 25 16 29 15 29 -4 0 -25 -56 -74 -85 -74 -76 0 -108 63
-113 223 -2 66 2 160 9 215 24 176 16 252 -25 252 -32 0 -54 -23 -82 -85 -35
-75 -54 -161 -54 -240 0 -38 -4 -75 -8 -81 -8 -13 -102 -37 -110 -29 -6 5 -24
294 -26 415 -1 44 -1 44 47 62 27 10 53 16 58 13 5 -4 9 -44 9 -91 0 -46 4
-84 8 -84 4 0 20 25 35 55 63 129 181 205 257 165z m-905 -70 c30 0 32 -11 7
-33 -13 -12 -17 -26 -14 -47 5 -33 -3 -37 -32 -15 -16 12 -23 12 -49 -1 l-30
-16 7 33 c5 25 2 37 -15 55 l-21 23 35 6 c24 5 38 15 47 33 l13 27 13 -32 c11
-25 20 -33 39 -33z m1285 25 c78 -40 26 -151 -100 -215 l-40 -20 0 -63 c0 -74
22 -157 47 -179 29 -25 70 -30 103 -13 41 21 39 2 -4 -41 -29 -29 -41 -34 -83
-34 -58 0 -141 36 -171 75 -12 14 -31 52 -43 83 -41 111 -10 279 67 356 61 60
161 83 224 51z m-924 -64 c20 -12 42 -41 60 -78 25 -52 28 -69 28 -158 1 -133
-13 -175 -78 -240 -79 -79 -148 -83 -213 -13 -77 82 -80 283 -6 421 44 82 136
112 209 68z m1192 -224 c23 -4 42 -12 42 -17 0 -5 -14 -20 -31 -32 -29 -21
-31 -27 -26 -70 2 -27 0 -48 -4 -48 -4 0 -24 9 -43 21 -32 19 -37 19 -65 5
-48 -25 -54 -22 -46 30 6 43 4 49 -25 79 l-32 33 49 7 c43 6 51 10 72 48 l24
41 21 -44 c18 -39 26 -45 64 -53z m272 12 c12 -23 20 -43 18 -45 -3 -2 -14 17
-26 41 -27 56 -20 60 8 4z m-1883 -185 c24 -3 43 -9 43 -13 0 -4 -14 -20 -31
-37 -28 -26 -30 -33 -25 -76 l5 -48 -42 22 c-23 12 -44 21 -47 21 -3 -1 -22
-9 -44 -18 l-38 -16 6 46 c7 41 4 49 -24 85 l-31 39 48 3 c45 3 49 5 73 48
l24 45 20 -47 c18 -44 23 -48 63 -54z m1810 -19 c24 -6 24 -7 9 -24 -9 -10
-16 -27 -16 -39 0 -24 -10 -28 -27 -11 -8 8 -17 8 -31 0 -28 -15 -29 -15 -24
18 2 16 -1 32 -7 35 -18 11 -13 26 9 26 10 0 25 10 31 22 l12 23 10 -22 c5
-12 21 -24 34 -28z m-252 -72 c-30 -76 -45 -239 -61 -658 -6 -160 -5 -183 10
-197 15 -16 22 -49 11 -60 -6 -6 -107 16 -124 27 -6 3 -11 27 -11 53 l0 46
-34 -37 c-60 -65 -157 -86 -233 -50 -93 44 -105 254 -20 350 55 63 110 75 213
48 32 -8 60 -13 62 -10 3 2 8 64 13 137 5 73 15 165 24 203 15 69 17 72 78
117 68 51 83 57 72 31z m-1080 -138 c30 -29 32 -64 5 -93 -26 -27 -40 -28 -74
-1 -17 13 -26 30 -26 49 0 19 9 36 26 49 34 27 40 26 69 -4z m115 10 c0 -10
-10 -15 -30 -15 -20 0 -30 -5 -30 -15 0 -10 10 -15 30 -15 38 0 40 -18 3 -22
-22 -2 -29 -9 -31 -30 -6 -47 -22 -31 -22 21 0 27 -3 56 -6 65 -4 11 3 16 33
19 21 2 41 4 46 5 4 1 7 -5 7 -13z m137 -6 c3 -12 16 -41 28 -65 12 -24 20
-46 17 -49 -12 -11 -42 -4 -42 10 0 8 -9 15 -20 15 -11 0 -20 -7 -20 -15 0 -8
-9 -15 -20 -15 -20 0 -27 19 -12 36 5 5 17 30 26 57 19 50 34 60 43 26z m-726
-47 c6 -15 31 -128 55 -250 24 -123 48 -230 52 -238 5 -9 34 39 87 146 44 87
85 159 90 159 6 0 22 -17 38 -39 l27 -39 -31 -58 c-76 -139 -73 -131 -59 -176
7 -23 36 -90 66 -149 l53 -106 -48 -31 c-26 -17 -52 -31 -57 -31 -6 0 -41 50
-79 111 l-69 111 -18 -37 c-17 -32 -18 -44 -8 -106 6 -39 8 -75 5 -80 -4 -5
-26 -9 -50 -9 -51 0 -48 -7 -70 143 -8 60 -22 141 -31 180 -8 40 -21 115 -29
167 -7 52 -23 151 -35 219 -11 68 -19 129 -17 135 3 7 26 10 61 8 51 -4 58 -7
67 -30z m1265 -32 c31 0 39 -17 14 -32 -13 -9 -20 -23 -20 -46 0 -30 -2 -32
-21 -21 -12 6 -36 8 -55 4 -33 -6 -34 -5 -28 23 4 19 1 32 -10 41 -23 19 -20
29 13 36 17 4 33 16 41 33 l12 27 16 -32 c11 -23 23 -33 38 -33z m-1046 0 c28
0 34 -18 10 -32 -13 -9 -20 -23 -20 -46 0 -30 -2 -32 -21 -21 -12 6 -36 8 -53
5 -31 -6 -32 -5 -28 22 2 18 -2 33 -12 41 -23 20 -20 29 14 36 17 4 35 16 41
28 12 20 12 20 31 -6 11 -15 28 -27 38 -27z m1564 -9 c8 -22 23 -42 33 -44 10
-3 31 -8 47 -12 l29 -6 -33 -34 c-28 -29 -32 -38 -29 -79 3 -25 2 -46 0 -46
-2 0 -21 10 -42 22 -38 21 -39 21 -79 3 -22 -10 -42 -16 -45 -14 -2 3 1 24 7
47 10 41 9 45 -21 76 -36 37 -32 46 20 46 34 0 41 4 61 40 13 22 26 40 29 40
4 0 14 -18 23 -39z m-938 -251 c29 -119 72 -260 79 -260 2 0 10 35 20 78 33
155 68 297 74 305 4 4 15 1 24 -5 15 -12 16 -19 1 -98 -19 -102 -57 -267 -85
-372 l-21 -78 -58 0 -59 0 -15 53 c-8 28 -25 91 -37 139 -13 49 -26 85 -30 80
-4 -4 -9 -51 -11 -105 -4 -100 -13 -121 -48 -114 -13 2 -15 26 -15 147 1 80 4
188 9 242 l8 96 46 10 c86 18 83 21 118 -118z m-1103 36 c17 -40 22 -44 63
-51 24 -3 44 -10 44 -15 0 -5 -14 -19 -31 -31 -28 -20 -30 -26 -27 -70 1 -27
-1 -49 -6 -49 -5 0 -24 9 -42 20 l-33 21 -41 -21 c-23 -12 -43 -20 -45 -18 -2
2 0 23 6 47 9 40 8 45 -23 79 -22 26 -27 38 -17 39 80 10 86 13 104 53 10 22
21 40 24 40 3 0 14 -20 24 -44z m811 -13 c3 -10 -1 -108 -7 -218 l-12 -200
-45 0 -45 0 4 210 c2 116 5 213 8 218 2 4 24 7 48 7 33 0 45 -4 49 -17z m1121
-203 c3 -11 15 -20 25 -20 26 0 33 -15 15 -30 -8 -7 -15 -23 -15 -36 0 -26
-10 -30 -28 -12 -9 9 -18 9 -37 0 -24 -11 -25 -10 -19 14 4 17 1 31 -11 44
-17 19 -17 20 3 20 12 0 27 9 34 20 7 11 16 20 20 20 4 0 10 -9 13 -20z m-969
-400 c16 -40 21 -43 83 -55 l34 -7 -38 -32 c-37 -31 -38 -34 -31 -79 4 -26 4
-47 1 -47 -3 0 -23 10 -44 22 -36 20 -39 21 -71 5 -48 -24 -51 -22 -44 31 5
43 3 49 -25 76 -35 34 -28 46 30 46 31 0 38 5 58 40 12 22 24 40 27 40 2 0 11
-18 20 -40z m492 16 c7 -15 23 -27 43 -31 l31 -7 -25 -23 c-18 -18 -23 -30
-19 -51 4 -24 3 -26 -14 -19 -24 11 -54 11 -78 0 -16 -7 -18 -5 -11 24 6 26 2
37 -16 57 l-22 24 31 0 c25 0 35 6 44 25 14 31 22 31 36 1z m-826 -86 c20 0
20 -1 5 -18 -10 -10 -17 -27 -17 -38 0 -16 -7 -19 -45 -19 -39 0 -44 2 -39 18
3 11 -2 27 -11 37 -16 18 -16 19 9 26 15 3 31 16 38 27 10 20 11 20 25 -6 8
-16 22 -27 35 -27z"/>
<path d="M2406 2644 c-42 -41 -76 -124 -52 -124 16 0 97 52 114 73 8 9 12 26
10 39 -4 29 -48 37 -72 12z"/>
<path d="M1488 2547 c-59 -94 -73 -226 -33 -311 21 -44 57 -57 86 -31 43 40
81 235 60 313 -12 41 -42 72 -71 72 -8 0 -27 -19 -42 -43z"/>
<path d="M2392 1613 c-4 -10 -7 -64 -7 -120 0 -81 3 -106 16 -118 15 -15 20
-14 57 22 34 33 41 46 47 95 10 80 1 106 -40 124 -45 19 -64 18 -73 -3z"/>
<path d="M1615 2004 c-19 -19 -16 -43 6 -57 37 -23 69 29 37 61 -16 16 -23 15
-43 -4z"/>
<path d="M1900 1980 c-9 -17 -8 -20 9 -20 14 0 18 5 14 20 -3 11 -7 20 -9 20
-2 0 -8 -9 -14 -20z"/>
<path d="M3301 2244 c0 -11 3 -14 6 -6 3 7 2 16 -1 19 -3 4 -6 -2 -5 -13z"/>
<path d="M3311 2204 c0 -11 3 -14 6 -6 3 7 2 16 -1 19 -3 4 -6 -2 -5 -13z"/>
<path d="M3322 2150 c0 -14 2 -19 5 -12 2 6 2 18 0 25 -3 6 -5 1 -5 -13z"/>
<path d="M3334 1928 c-2 -145 -6 -205 -24 -288 -66 -323 -271 -636 -545 -835
-114 -82 -164 -112 -285 -166 -94 -43 -93 -50 3 -18 209 69 442 247 601 460
131 172 208 345 252 559 27 130 32 314 11 413 -11 54 -12 45 -13 -125z"/>
</g>
</svg>
